<?xml version="1.0" standalone="no"?>
<!DOCTYPE svg PUBLIC "-//W3C//DTD SVG 20010904//EN"
 "http://www.w3.org/TR/2001/REC-SVG-20010904/DTD/svg10.dtd">
<svg version="1.0" xmlns="http://www.w3.org/2000/svg"
 width="640.000000pt" height="640.000000pt" viewBox="0 0 640.000000 640.000000"
 preserveAspectRatio="xMidYMid meet">
<metadata>
Created by potrace 1.11, written by Peter Selinger 2001-2013
</metadata>
<g transform="translate(0.000000,640.000000) scale(0.100000,-0.100000)"
fill="#000000" stroke="none">
<path d="M3113 5442 c-181 -169 -358 -414 -487 -672 -40 -80 -75 -152 -78
-160 -3 -11 -42 21 -129 104 -233 223 -491 395 -749 500 -50 20 -66 23 -73 14
-30 -44 -125 -259 -162 -371 -69 -209 -125 -500 -125 -652 0 -30 -4 -56 -10
-60 -5 -3 -37 8 -70 25 -293 148 -719 260 -988 260 -70 0 -65 11 -83 -184 -54
-585 173 -1316 596 -1921 239 -342 579 -689 894 -913 488 -346 973 -526 1476
-546 530 -22 1093 168 1626 546 315 224 655 571 894 913 423 605 650 1336 596
1921 -18 195 -13 184 -83 184 -273 0 -693 -112 -997 -265 -39 -19 -72 -35 -74
-35 -2 0 -7 44 -11 98 -22 309 -103 625 -228 884 -71 148 -48 140 -208 68
-226 -101 -465 -266 -664 -461 l-119 -116 -78 156 c-132 267 -340 552 -512
704 -36 31 -67 57 -69 57 -2 0 -40 -35 -85 -78z"/>
</g>
</svg>
